<svg width="298" height="459" viewBox="0 0 298 459" fill="none" xmlns="http://www.w3.org/2000/svg">
<g id="Group 1">
<path id="Vector" d="M96.9988 245.186V370.091H145.573V243.451L134.297 243.853V218.296H126.118L124.771 161.692C128.071 159.542 130.394 154.434 130.394 148.47C130.397 146.758 130.198 145.052 129.8 143.386C131.362 141.696 132.319 139.536 132.522 137.244C132.725 134.951 132.161 132.656 130.92 130.719C131.958 131.625 133.166 132.317 134.473 132.754C135.78 133.19 137.161 133.362 138.536 133.261C139.91 133.159 141.251 132.786 142.48 132.162C143.709 131.538 144.802 130.676 145.695 129.626C146.588 128.576 147.264 127.36 147.683 126.047C148.102 124.734 148.256 123.351 148.136 121.977C148.017 120.604 147.625 119.269 146.985 118.048C146.345 116.828 145.469 115.746 144.407 114.867C146.192 114.208 147.762 113.073 148.947 111.585C150.132 110.097 150.887 108.312 151.129 106.426C151.371 104.539 151.091 102.622 150.32 100.882C149.549 99.1434 148.316 97.6487 146.756 96.561C145.195 95.4733 143.366 94.834 141.468 94.7126C139.569 94.5913 137.674 94.9925 135.987 95.8726C134.301 96.7528 132.888 98.0782 131.902 99.705C130.915 101.332 130.394 103.198 130.394 105.1C130.394 105.253 130.399 105.404 130.405 105.554C128.976 105.118 127.469 104.994 125.988 105.191C124.507 105.388 123.085 105.902 121.82 106.697C120.555 107.492 119.475 108.55 118.655 109.8C117.835 111.049 117.294 112.46 117.067 113.937C115.769 113.165 114.318 112.684 112.816 112.529C111.314 112.373 109.795 112.547 108.367 113.037C106.938 113.527 105.633 114.322 104.543 115.367C103.452 116.413 102.602 117.683 102.052 119.089C101.501 120.496 101.264 122.005 101.355 123.513C101.446 125.02 101.865 126.49 102.581 127.82C103.298 129.15 104.295 130.307 105.504 131.213C106.713 132.119 108.104 132.75 109.582 133.064C109.58 133.14 109.576 133.215 109.576 133.291C110.543 136.208 111.773 139.031 113.252 141.725C112.529 143.9 112.166 146.178 112.178 148.47C112.178 154.434 114.501 159.542 117.801 161.692L116.453 218.296H108.275V244.783L96.9988 245.186ZM127.331 125.917L127.358 125.918C127.508 125.918 127.657 125.913 127.805 125.906C127.899 126.214 128.006 126.515 128.127 126.81C127.879 126.497 127.613 126.199 127.331 125.917Z" fill="#E2E2E2"/>
<path id="Vector_2" d="M70.2538 459H217.712L217.712 288.411H70.2538L70.2538 459Z" fill="#3F3D56"/>
<path id="Vector_3" d="M124.105 459H163.861V424.304H124.105V459Z" fill="#E2E2E2"/>
<path id="Vector_4" d="M21.1106 63.9548C21.1078 64.0808 21.1011 64.2057 21.1011 64.3323C21.0987 66.6523 21.5631 68.949 22.4668 71.0857C23.3704 73.2224 24.6948 75.1555 26.361 76.7698C26.6212 77.3248 26.9107 77.8657 27.2282 78.3901C26.0226 82.0145 25.4179 85.8118 25.4381 89.6315C25.4381 102.805 32.2341 113.485 40.6176 113.485C49.0011 113.485 55.7972 102.805 55.7972 89.6315C55.8034 86.7778 55.4713 83.9335 54.8078 81.158C57.4109 78.3413 59.0062 74.7407 59.344 70.9203C59.6818 67.0998 58.7429 63.2752 56.6745 60.0454C58.4043 61.5568 60.4171 62.7096 62.5959 63.4369C64.7748 64.1641 67.0764 64.4513 69.3672 64.2819C71.6579 64.1124 73.8923 63.4896 75.9404 62.4497C77.9886 61.4098 79.8097 59.9734 81.2983 58.2239C82.7868 56.4745 83.913 54.4468 84.6116 52.2585C85.3101 50.0703 85.5671 47.7651 85.3675 45.4768C85.168 43.1884 84.516 40.9625 83.4492 38.9282C82.3825 36.8939 80.9222 35.0917 79.1534 33.6263C82.1279 32.5286 84.7447 30.6368 86.7197 28.1564C88.6946 25.676 89.952 22.7018 90.3554 19.557C90.7588 16.4122 90.2927 13.2169 89.0077 10.3184C87.7228 7.41985 85.6682 4.92882 83.067 3.11593C80.4658 1.30304 77.4176 0.2376 74.2535 0.0353483C71.0893 -0.166903 67.9303 0.501769 65.1195 1.96873C62.3087 3.43569 59.9536 5.64483 58.31 8.35619C56.6665 11.0676 55.7975 14.1775 55.7972 17.348C55.7972 17.602 55.8056 17.854 55.8162 18.1053C53.4342 17.3777 50.9236 17.1712 48.4547 17.4998C45.9858 17.8283 43.6166 18.6843 41.5079 20.0096C39.3991 21.3349 37.6002 23.0984 36.2334 25.1805C34.8665 27.2625 33.9637 29.6143 33.5862 32.0762C31.4227 30.789 29.0051 29.988 26.501 29.7289C23.997 29.4698 21.4665 29.7588 19.0854 30.5758C16.7042 31.3928 14.5293 32.7182 12.7118 34.4601C10.8943 36.202 9.47772 38.3185 8.56029 40.6628C7.64285 43.0071 7.24657 45.523 7.39903 48.0358C7.55149 50.5486 8.24902 52.9981 9.44316 55.2143C10.6373 57.4305 12.2994 59.3603 14.3142 60.8696C16.329 62.3789 18.6481 63.4317 21.1106 63.9548ZM50.7372 52.0441C50.9875 52.0441 51.236 52.0357 51.4837 52.0252C51.6394 52.538 51.818 53.04 52.0195 53.5312C51.606 53.0102 51.1629 52.5132 50.6924 52.043L50.7372 52.0441Z" fill="#E2E2E2"/>
<path id="Vector_5" d="M31.9411 232.03H49.2913L48.6716 206.01V206L46.4011 110.59C44.6592 111.654 42.6575 112.218 40.6161 112.218C38.5748 112.218 36.5732 111.654 34.8313 110.59L32.5613 206V206.01L31.9411 232.03Z" fill="#6C63FF"/>
<path id="Vector_6" d="M0.140991 250.82V459H81.092V247.93L62.301 248.6V206.01H18.931V250.15L0.140991 250.82Z" fill="#6C63FF"/>
<path id="Vector_7" d="M227.841 63.9548C227.838 64.0808 227.832 64.2057 227.832 64.3323C227.829 66.6523 228.294 68.949 229.197 71.0857C230.101 73.2224 231.425 75.1555 233.092 76.7698C233.352 77.3248 233.641 77.8657 233.959 78.3901C232.753 82.0145 232.149 85.8118 232.169 89.6315C232.169 102.805 238.965 113.485 247.348 113.485C255.732 113.485 262.528 102.805 262.528 89.6315C262.534 86.7778 262.202 83.9335 261.539 81.158C264.142 78.3413 265.737 74.7407 266.075 70.9203C266.412 67.0998 265.474 63.2752 263.405 60.0454C265.135 61.5569 267.148 62.7097 269.327 63.4369C271.506 64.1642 273.807 64.4515 276.098 64.282C278.389 64.1126 280.623 63.4898 282.671 62.4499C284.719 61.4099 286.541 59.9736 288.029 58.2241C289.518 56.4746 290.644 54.4469 291.343 52.2586C292.041 50.0704 292.298 47.7652 292.098 45.4768C291.899 43.1884 291.247 40.9625 290.18 38.9282C289.113 36.8939 287.653 35.0917 285.884 33.6263C288.859 32.5286 291.475 30.6368 293.45 28.1564C295.425 25.676 296.683 22.7018 297.086 19.557C297.489 16.4122 297.023 13.2169 295.738 10.3184C294.454 7.41985 292.399 4.92882 289.798 3.11593C287.197 1.30304 284.148 0.2376 280.984 0.0353484C277.82 -0.166904 274.661 0.501768 271.85 1.96873C269.039 3.43569 266.684 5.64483 265.041 8.3562C263.397 11.0676 262.528 14.1775 262.528 17.348C262.528 17.602 262.536 17.854 262.547 18.1053C260.165 17.3777 257.654 17.1712 255.185 17.4998C252.717 17.8283 250.347 18.6843 248.239 20.0096C246.13 21.3349 244.331 23.0984 242.964 25.1805C241.597 27.2625 240.694 29.6143 240.317 32.0762C238.153 30.789 235.736 29.988 233.232 29.7289C230.728 29.4698 228.197 29.7588 225.816 30.5758C223.435 31.3928 221.26 32.7182 219.443 34.4601C217.625 36.202 216.208 38.3185 215.291 40.6628C214.374 43.0071 213.977 45.523 214.13 48.0358C214.282 50.5486 214.98 52.9981 216.174 55.2143C217.368 57.4305 219.03 59.3603 221.045 60.8696C223.06 62.3789 225.379 63.4317 227.841 63.9548ZM257.468 52.0441C257.718 52.0441 257.967 52.0357 258.214 52.0252C258.37 52.5379 258.549 53.04 258.75 53.5312C258.337 53.0101 257.894 52.5132 257.423 52.043L257.468 52.0441Z" fill="#E2E2E2"/>
<path id="Vector_8" d="M238.674 232.03H256.022L253.131 110.594C249.393 111.937 245.304 111.937 241.566 110.594L238.674 232.03Z" fill="#6C63FF"/>
<path id="Vector_9" d="M206.871 250.82V459H287.831V247.93L281.181 248.17L269.031 248.6V206.01H225.661V250.15L206.871 250.82Z" fill="#6C63FF"/>
<path id="Vector_10" d="M165.983 329H185.983V309H165.983V329Z" fill="white"/>
<path id="Vector_11" d="M133.983 329H153.983V309H133.983V329Z" fill="white"/>
<path id="Vector_12" d="M101.983 329H121.983V309H101.983V329Z" fill="white"/>
<path id="Vector_13" d="M165.983 361H185.983V341H165.983V361Z" fill="white"/>
<path id="Vector_14" d="M133.983 361H153.983V341H133.983V361Z" fill="white"/>
<path id="Vector_15" d="M101.983 361H121.983V341H101.983V361Z" fill="white"/>
<path id="Vector_16" d="M165.983 393H185.983V373H165.983V393Z" fill="white"/>
<path id="Vector_17" d="M133.983 393H153.983V373H133.983V393Z" fill="white"/>
<path id="Vector_18" d="M101.983 393H121.983V373H101.983V393Z" fill="white"/>
<path id="Vector_19" d="M30.6176 321H50.6176V301H30.6176L30.6176 321Z" fill="white"/>
<path id="Vector_20" d="M30.6176 353H50.6176V333H30.6176L30.6176 353Z" fill="white"/>
<path id="Vector_21" d="M30.6176 385H50.6176V365H30.6176L30.6176 385Z" fill="white"/>
<path id="Vector_22" d="M30.6176 417H50.6176V397H30.6176L30.6176 417Z" fill="white"/>
<path id="Vector_23" d="M237.181 321H257.181V301H237.181V321Z" fill="white"/>
<path id="Vector_24" d="M237.181 353H257.181V333H237.181V353Z" fill="white"/>
<path id="Vector_25" d="M237.181 385H257.181V365H237.181V385Z" fill="white"/>
<path id="Vector_26" d="M237.181 417H257.181V397H237.181V417Z" fill="white"/>
</g>
</svg>
