<svg width="445" height="226" viewBox="0 0 445 226" fill="none" xmlns="http://www.w3.org/2000/svg">
<path d="M0 225C0 224.445 0.265114 224 0.595251 224H443.405C443.735 224 444 224.445 444 225C444 225.555 443.735 226 443.405 226H0.595251C0.265114 226 0 225.555 0 225Z" fill="#3F3D56"/>
<path d="M420.539 99.244V223.931H24.6651V115.187L37.8021 89.0353H415.123L420.539 99.244Z" fill="#E6E6E6"/>
<path d="M444.264 143.942L420.539 127.308L378.511 97.8475L316.147 145.298L24.6651 146.925L8.67432 147.013L24.6651 115.187L37.802 89.0353L53.8133 27.3495L397.491 25.9938L415.123 89.0353L420.539 99.244L444.264 143.942Z" fill="#2F2E41"/>
<path d="M271.408 127.284H114.143V60.8531L192.776 32.0945L271.408 60.8531V127.284Z" fill="#E6E6E6"/>
<path d="M106.348 155.805H37.2056V223.931H106.348V155.805Z" fill="white"/>
<path d="M258.19 155.805H132.785V223.931H258.19V155.805Z" fill="white"/>
<path d="M302.929 161.228H281.915V223.931H302.929V161.228Z" fill="white"/>
<path d="M394.135 147.01H351.38V190.257H394.135V147.01Z" fill="#6C63FF"/>
<path d="M373.986 147.01H371.037V190.257H373.986V147.01Z" fill="#E6E6E6"/>
<path d="M257.884 72.4452H215.129V115.692H257.884V72.4452Z" fill="#6C63FF"/>
<path d="M237.735 72.4452H234.786V115.692H237.735V72.4452Z" fill="#E6E6E6"/>
<path d="M179.251 72.4452H136.496V115.692H179.251V72.4452Z" fill="#6C63FF"/>
<path d="M159.102 72.4452H156.154V115.692H159.102V72.4452Z" fill="#E6E6E6"/>
<path d="M387.264 111.931H367.264V131.931H387.264V111.931Z" fill="#3F3D56"/>
<path d="M236.967 0H226.967V32H236.967V0Z" fill="#2F2E41"/>
</svg>
