<svg width="1606" height="404" viewBox="0 0 1606 404" fill="none" xmlns="http://www.w3.org/2000/svg">
<g id="Group 1" filter="url(#filter0_d_2_33)">
<g id="panel">
<path id="Vector" d="M866.836 277.806H739.026V384.306H866.836V277.806Z" fill="#CCD1D9"/>
<path id="Vector_2" d="M930.715 373.651C930.715 361.873 921.187 352.344 909.424 352.344H696.427C684.665 352.344 675.136 361.872 675.136 373.651V394.956H930.714L930.715 373.651Z" fill="#434A54"/>
<path id="Vector_3" d="M977.654 22.374L628.214 22.202C616.499 22.202 549.926 266.808 547.457 278.273V299.579C545.02 311.014 552.581 320.386 564.296 320.386L1041.56 320.574C1053.27 320.574 1060.83 311.202 1058.39 299.767L1058.83 282.179C1056.38 270.713 989.369 22.374 977.654 22.374Z" fill="#4A89DC"/>
<path id="Vector_4" d="M977.654 1.084L628.214 0.897003C616.499 0.897003 604.893 10.269 602.441 21.734L547.457 278.273C545.02 289.739 552.581 299.11 564.296 299.11L1041.56 299.266C1053.27 299.266 1060.83 289.895 1058.39 278.46L1003.41 21.906C1000.96 10.456 989.369 1.084 977.654 1.084Z" fill="#5D9CEC"/>
<path id="Vector_5" d="M1025.19 123.562L944.524 123.374L939.212 77.451L1015.35 77.623L1010.78 56.332L936.744 56.144L930.34 0.895004H908.908L915.297 56.144H854.551L852.332 0.895004H831.026L833.228 56.144H772.419L774.543 0.895004H753.222L751.113 56.144H690.038L696.192 0.895004H674.761L668.607 56.144H595.068L590.507 77.45H666.25L661.142 123.373H580.666L576.105 144.679H658.768L652.848 197.929H564.686L560.109 219.227H650.472L641.584 299.108H663.015L671.903 219.227H744.881L741.835 299.108H763.141L766.203 219.227H839.758L842.961 299.108H864.281L861.08 219.227H934.183L943.43 299.108H964.861L955.614 219.227L1045.74 219.415L1041.18 198.101L953.146 197.93L946.992 144.68L1029.76 144.852L1025.19 123.562ZM745.694 197.93H674.278L680.198 144.68H747.74L745.694 197.93ZM748.552 123.375H682.572L687.68 77.452H750.301L748.552 123.375ZM771.608 77.451H834.088L835.932 123.374H769.858L771.608 77.451ZM767.015 197.93L769.046 144.68H836.775L838.899 197.93H767.015ZM855.395 77.451H917.75L923.076 123.374H857.237L855.395 77.451ZM860.237 197.93L858.096 144.68H925.545L931.715 197.93H860.237Z" fill="#4A89DC"/>
</g>
<g id="panel_2">
<path id="Vector_6" d="M1409.84 277.911H1282.03V384.411H1409.84V277.911Z" fill="#CCD1D9"/>
<path id="Vector_7" d="M1473.71 373.756C1473.71 361.978 1464.19 352.449 1452.42 352.449H1239.43C1227.66 352.449 1218.14 361.977 1218.14 373.756V395.061H1473.71L1473.71 373.756Z" fill="#434A54"/>
<path id="Vector_8" d="M1520.65 22.479L1171.21 22.307C1159.5 22.307 1092.93 266.913 1090.46 278.378V299.684C1088.02 311.119 1095.58 320.491 1107.3 320.491L1584.56 320.679C1596.27 320.679 1603.83 311.307 1601.39 299.872L1601.83 282.284C1599.38 270.818 1532.37 22.479 1520.65 22.479Z" fill="#4A89DC"/>
<path id="Vector_9" d="M1520.65 1.189L1171.21 1.002C1159.5 1.002 1147.89 10.374 1145.44 21.839L1090.46 278.378C1088.02 289.844 1095.58 299.215 1107.3 299.215L1584.56 299.371C1596.27 299.371 1603.83 290 1601.39 278.565L1546.41 22.011C1543.96 10.561 1532.37 1.189 1520.65 1.189Z" fill="#5D9CEC"/>
<path id="Vector_10" d="M1568.19 123.667L1487.52 123.479L1482.21 77.556L1558.35 77.728L1553.78 56.437L1479.74 56.249L1473.34 1H1451.91L1458.3 56.249H1397.55L1395.33 1H1374.03L1376.23 56.249H1315.42L1317.54 1H1296.22L1294.11 56.249H1233.04L1239.19 1H1217.76L1211.61 56.249H1138.07L1133.51 77.555H1209.25L1204.14 123.478H1123.67L1119.1 144.784H1201.77L1195.85 198.034H1107.69L1103.11 219.332H1193.47L1184.58 299.213H1206.01L1214.9 219.332H1287.88L1284.83 299.213H1306.14L1309.2 219.332H1382.76L1385.96 299.213H1407.28L1404.08 219.332H1477.18L1486.43 299.213H1507.86L1498.61 219.332L1588.74 219.52L1584.18 198.206L1496.15 198.035L1489.99 144.785L1572.76 144.957L1568.19 123.667ZM1288.69 198.035H1217.28L1223.2 144.785H1290.74L1288.69 198.035ZM1291.55 123.48H1225.57L1230.68 77.557H1293.3L1291.55 123.48ZM1314.61 77.556H1377.09L1378.93 123.479H1312.86L1314.61 77.556ZM1310.01 198.035L1312.05 144.785H1379.77L1381.9 198.035H1310.01ZM1398.39 77.556H1460.75L1466.08 123.479H1400.24L1398.39 77.556ZM1403.24 198.035L1401.1 144.785H1468.54L1474.71 198.035H1403.24Z" fill="#4A89DC"/>
</g>
<g id="panel_3">
<path id="Vector_11" d="M323.836 277.911H196.026V384.411H323.836V277.911Z" fill="#CCD1D9"/>
<path id="Vector_12" d="M387.715 373.756C387.715 361.978 378.187 352.449 366.424 352.449H153.427C141.665 352.449 132.136 361.977 132.136 373.756V395.061H387.714L387.715 373.756Z" fill="#434A54"/>
<path id="Vector_13" d="M434.654 22.479L85.2137 22.307C73.4987 22.307 6.9257 266.913 4.4567 278.378V299.684C2.0197 311.119 9.5807 320.491 21.2957 320.491L498.556 320.679C510.272 320.679 517.831 311.307 515.395 299.872L515.833 282.284C513.379 270.818 446.369 22.479 434.654 22.479Z" fill="#4A89DC"/>
<path id="Vector_14" d="M434.654 1.189L85.2137 1.002C73.4987 1.002 61.8927 10.374 59.4407 21.839L4.4567 278.378C2.0197 289.844 9.5807 299.215 21.2957 299.215L498.556 299.371C510.272 299.371 517.831 290 515.395 278.565L460.411 22.011C457.959 10.561 446.369 1.189 434.654 1.189Z" fill="#5D9CEC"/>
<path id="Vector_15" d="M482.186 123.667L401.524 123.479L396.212 77.556L472.346 77.728L467.784 56.437L393.744 56.249L387.34 1H365.908L372.297 56.249H311.551L309.332 1H288.026L290.228 56.249H229.419L231.543 1H210.222L208.113 56.249H147.038L153.192 1H131.761L125.607 56.249H52.0676L47.5066 77.555H123.25L118.142 123.478H37.6656L33.1046 144.784H115.768L109.848 198.034H21.6856L17.1086 219.332H107.472L98.5836 299.213H120.015L128.903 219.332H201.881L198.835 299.213H220.141L223.203 219.332H296.758L299.961 299.213H321.281L318.08 219.332H391.183L400.43 299.213H421.861L412.614 219.332L502.743 219.52L498.182 198.206L410.146 198.035L403.992 144.785L486.763 144.957L482.186 123.667ZM202.694 198.035H131.278L137.198 144.785H204.74L202.694 198.035ZM205.552 123.48H139.572L144.68 77.557H207.301L205.552 123.48ZM228.608 77.556H291.088L292.932 123.479H226.858L228.608 77.556ZM224.015 198.035L226.046 144.785H293.775L295.899 198.035H224.015ZM312.395 77.556H374.75L380.076 123.479H314.237L312.395 77.556ZM317.237 198.035L315.096 144.785H382.545L388.715 198.035H317.237Z" fill="#4A89DC"/>
</g>
</g>
<defs>
<filter id="filter0_d_2_33" x="0" y="0.895004" width="1605.85" height="402.166" filterUnits="userSpaceOnUse" color-interpolation-filters="sRGB">
<feFlood flood-opacity="0" result="BackgroundImageFix"/>
<feColorMatrix in="SourceAlpha" type="matrix" values="0 0 0 0 0 0 0 0 0 0 0 0 0 0 0 0 0 0 127 0" result="hardAlpha"/>
<feOffset dy="4"/>
<feGaussianBlur stdDeviation="2"/>
<feComposite in2="hardAlpha" operator="out"/>
<feColorMatrix type="matrix" values="0 0 0 0 0 0 0 0 0 0 0 0 0 0 0 0 0 0 0.25 0"/>
<feBlend mode="normal" in2="BackgroundImageFix" result="effect1_dropShadow_2_33"/>
<feBlend mode="normal" in="SourceGraphic" in2="effect1_dropShadow_2_33" result="shape"/>
</filter>
</defs>
</svg>
