<svg width="1010" height="771" viewBox="0 0 1010 771" fill="none" xmlns="http://www.w3.org/2000/svg">
<g id="undraw_building_re_xfcm 1" clip-path="url(#clip0_1_2)">
<path id="Vector" d="M275.337 752.5H275.272C273.018 752.497 270.858 751.601 269.264 750.008C267.671 748.414 266.774 746.254 266.772 744V245C266.774 242.746 267.671 240.586 269.264 238.992C270.858 237.399 273.018 236.503 275.272 236.5H695.272C697.525 236.503 699.686 237.399 701.279 238.992C702.873 240.586 703.769 242.746 703.772 245V633C703.769 635.242 702.882 637.393 701.303 638.984C699.723 640.576 697.58 641.48 695.338 641.5L275.337 752.5Z" fill="#F2F2F2"/>
<path id="Vector_2" d="M585.772 166H390.772V53C390.774 50.6139 391.723 48.3263 393.411 46.6391C395.098 44.9518 397.386 44.0027 399.772 44H576.772C579.158 44.0027 581.445 44.9518 583.133 46.6391C584.82 48.3263 585.769 50.6139 585.772 53V166ZM392.772 164H583.772V53C583.77 51.1441 583.031 49.3649 581.719 48.0526C580.407 46.7402 578.628 46.0021 576.772 46H399.772C397.916 46.0021 396.136 46.7402 394.824 48.0526C393.512 49.3649 392.774 51.1441 392.772 53V164Z" fill="#3F3D56"/>
<path id="Vector_3" d="M446.272 87H530.272C532.393 87 534.428 87.8429 535.929 89.3431C537.429 90.8434 538.272 92.8783 538.272 95V215H438.272V95C438.272 92.8783 439.115 90.8434 440.615 89.3431C442.115 87.8429 444.15 87 446.272 87Z" fill="#E6E6E6"/>
<path id="Vector_4" d="M462.772 46H421.772V5C421.773 3.67438 422.3 2.40349 423.238 1.46614C424.175 0.528787 425.446 0.00151655 426.772 0H457.772C459.097 0.00151655 460.368 0.528787 461.305 1.46614C462.243 2.40349 462.77 3.67438 462.772 5V46ZM423.772 44H460.772V5C460.771 4.20462 460.454 3.44206 459.892 2.87964C459.33 2.31722 458.567 2.00087 457.772 2H426.772C425.976 2.00087 425.214 2.31722 424.651 2.87964C424.089 3.44206 423.773 4.20462 423.772 5V44Z" fill="#3F3D56"/>
<path id="Vector_5" d="M294.031 174L294.772 175.46C295.1 176.09 295.271 176.79 295.272 177.5V217H330.272V177.5C330.272 176.79 330.444 176.09 330.772 175.46L331.512 174H294.031ZM328.272 177.5V215H297.272V177.5C297.272 176.995 297.212 176.491 297.091 176H328.452C328.332 176.491 328.271 176.995 328.272 177.5ZM338.031 174L338.772 175.46C339.1 176.09 339.271 176.79 339.272 177.5V217H374.272V177.5C374.272 176.79 374.444 176.09 374.772 175.46L375.512 174H338.031ZM372.272 177.5V215H341.272V177.5C341.272 176.995 341.212 176.491 341.091 176H372.452C372.332 176.491 372.271 176.995 372.272 177.5ZM382.031 174L382.772 175.46C383.1 176.09 383.271 176.79 383.272 177.5V217H418.272V177.5C418.272 176.79 418.444 176.09 418.772 175.46L419.512 174H382.031ZM416.272 177.5V215H385.272V177.5C385.272 176.995 385.212 176.491 385.091 176H416.452C416.332 176.491 416.271 176.995 416.272 177.5ZM426.031 174L426.772 175.46C427.1 176.09 427.271 176.79 427.272 177.5V217H462.272V177.5C462.272 176.79 462.444 176.09 462.772 175.46L463.512 174H426.031ZM460.272 177.5V215H429.272V177.5C429.272 176.995 429.212 176.491 429.091 176H460.452C460.332 176.491 460.271 176.995 460.272 177.5ZM470.031 174L470.772 175.46C471.1 176.09 471.271 176.79 471.272 177.5V217H506.272V177.5C506.272 176.79 506.444 176.09 506.772 175.46L507.512 174H470.031ZM504.272 177.5V215H473.272V177.5C473.272 176.995 473.212 176.491 473.091 176H504.452C504.332 176.491 504.271 176.995 504.272 177.5ZM514.031 174L514.772 175.46C515.1 176.09 515.271 176.79 515.272 177.5V217H550.272V177.5C550.272 176.79 550.444 176.09 550.772 175.46L551.512 174H514.031ZM548.272 177.5V215H517.272V177.5C517.272 176.995 517.212 176.491 517.091 176H548.452C548.332 176.491 548.271 176.995 548.272 177.5ZM558.031 174L558.772 175.46C559.1 176.09 559.271 176.79 559.272 177.5V217H594.272V177.5C594.272 176.79 594.444 176.09 594.772 175.46L595.512 174H558.031ZM592.272 177.5V215H561.272V177.5C561.272 176.995 561.212 176.491 561.091 176H592.452C592.332 176.491 592.271 176.995 592.272 177.5ZM602.031 174L602.772 175.46C603.1 176.09 603.271 176.79 603.272 177.5V217H638.272V177.5C638.272 176.79 638.444 176.09 638.772 175.46L639.512 174H602.031ZM636.272 177.5V215H605.272V177.5C605.272 176.995 605.212 176.491 605.091 176H636.452C636.332 176.491 636.271 176.995 636.272 177.5ZM646.031 174L646.772 175.46C647.1 176.09 647.271 176.79 647.272 177.5V217H682.272V177.5C682.272 176.79 682.444 176.09 682.772 175.46L683.512 174H646.031ZM680.272 177.5V215H649.272V177.5C649.272 176.995 649.212 176.491 649.091 176H680.452C680.332 176.491 680.271 176.995 680.272 177.5ZM646.031 174L646.772 175.46C647.1 176.09 647.271 176.79 647.272 177.5V217H682.272V177.5C682.272 176.79 682.444 176.09 682.772 175.46L683.512 174H646.031ZM680.272 177.5V215H649.272V177.5C649.272 176.995 649.212 176.491 649.091 176H680.452C680.332 176.491 680.271 176.995 680.272 177.5ZM602.031 174L602.772 175.46C603.1 176.09 603.271 176.79 603.272 177.5V217H638.272V177.5C638.272 176.79 638.444 176.09 638.772 175.46L639.512 174H602.031ZM636.272 177.5V215H605.272V177.5C605.272 176.995 605.212 176.491 605.091 176H636.452C636.332 176.491 636.271 176.995 636.272 177.5ZM558.031 174L558.772 175.46C559.1 176.09 559.271 176.79 559.272 177.5V217H594.272V177.5C594.272 176.79 594.444 176.09 594.772 175.46L595.512 174H558.031ZM592.272 177.5V215H561.272V177.5C561.272 176.995 561.212 176.491 561.091 176H592.452C592.332 176.491 592.271 176.995 592.272 177.5ZM514.031 174L514.772 175.46C515.1 176.09 515.271 176.79 515.272 177.5V217H550.272V177.5C550.272 176.79 550.444 176.09 550.772 175.46L551.512 174H514.031ZM548.272 177.5V215H517.272V177.5C517.272 176.995 517.212 176.491 517.091 176H548.452C548.332 176.491 548.271 176.995 548.272 177.5ZM470.031 174L470.772 175.46C471.1 176.09 471.271 176.79 471.272 177.5V217H506.272V177.5C506.272 176.79 506.444 176.09 506.772 175.46L507.512 174H470.031ZM504.272 177.5V215H473.272V177.5C473.272 176.995 473.212 176.491 473.091 176H504.452C504.332 176.491 504.271 176.995 504.272 177.5ZM426.031 174L426.772 175.46C427.1 176.09 427.271 176.79 427.272 177.5V217H462.272V177.5C462.272 176.79 462.444 176.09 462.772 175.46L463.512 174H426.031ZM460.272 177.5V215H429.272V177.5C429.272 176.995 429.212 176.491 429.091 176H460.452C460.332 176.491 460.271 176.995 460.272 177.5ZM382.031 174L382.772 175.46C383.1 176.09 383.271 176.79 383.272 177.5V217H418.272V177.5C418.272 176.79 418.444 176.09 418.772 175.46L419.512 174H382.031ZM416.272 177.5V215H385.272V177.5C385.272 176.995 385.212 176.491 385.091 176H416.452C416.332 176.491 416.271 176.995 416.272 177.5ZM338.031 174L338.772 175.46C339.1 176.09 339.271 176.79 339.272 177.5V217H374.272V177.5C374.272 176.79 374.444 176.09 374.772 175.46L375.512 174H338.031ZM372.272 177.5V215H341.272V177.5C341.272 176.995 341.212 176.491 341.091 176H372.452C372.332 176.491 372.271 176.995 372.272 177.5ZM294.031 174L294.772 175.46C295.1 176.09 295.271 176.79 295.272 177.5V217H330.272V177.5C330.272 176.79 330.444 176.09 330.772 175.46L331.512 174H294.031ZM328.272 177.5V215H297.272V177.5C297.272 176.995 297.212 176.491 297.091 176H328.452C328.332 176.491 328.271 176.995 328.272 177.5ZM646.031 174L646.772 175.46C647.1 176.09 647.271 176.79 647.272 177.5V217H682.272V177.5C682.272 176.79 682.444 176.09 682.772 175.46L683.512 174H646.031ZM680.272 177.5V215H649.272V177.5C649.272 176.995 649.212 176.491 649.091 176H680.452C680.332 176.491 680.271 176.995 680.272 177.5ZM602.031 174L602.772 175.46C603.1 176.09 603.271 176.79 603.272 177.5V217H638.272V177.5C638.272 176.79 638.444 176.09 638.772 175.46L639.512 174H602.031ZM636.272 177.5V215H605.272V177.5C605.272 176.995 605.212 176.491 605.091 176H636.452C636.332 176.491 636.271 176.995 636.272 177.5ZM558.031 174L558.772 175.46C559.1 176.09 559.271 176.79 559.272 177.5V217H594.272V177.5C594.272 176.79 594.444 176.09 594.772 175.46L595.512 174H558.031ZM592.272 177.5V215H561.272V177.5C561.272 176.995 561.212 176.491 561.091 176H592.452C592.332 176.491 592.271 176.995 592.272 177.5ZM514.031 174L514.772 175.46C515.1 176.09 515.271 176.79 515.272 177.5V217H550.272V177.5C550.272 176.79 550.444 176.09 550.772 175.46L551.512 174H514.031ZM548.272 177.5V215H517.272V177.5C517.272 176.995 517.212 176.491 517.091 176H548.452C548.332 176.491 548.271 176.995 548.272 177.5ZM470.031 174L470.772 175.46C471.1 176.09 471.271 176.79 471.272 177.5V217H506.272V177.5C506.272 176.79 506.444 176.09 506.772 175.46L507.512 174H470.031ZM504.272 177.5V215H473.272V177.5C473.272 176.995 473.212 176.491 473.091 176H504.452C504.332 176.491 504.271 176.995 504.272 177.5ZM426.031 174L426.772 175.46C427.1 176.09 427.271 176.79 427.272 177.5V217H462.272V177.5C462.272 176.79 462.444 176.09 462.772 175.46L463.512 174H426.031ZM460.272 177.5V215H429.272V177.5C429.272 176.995 429.212 176.491 429.091 176H460.452C460.332 176.491 460.271 176.995 460.272 177.5ZM382.031 174L382.772 175.46C383.1 176.09 383.271 176.79 383.272 177.5V217H418.272V177.5C418.272 176.79 418.444 176.09 418.772 175.46L419.512 174H382.031ZM416.272 177.5V215H385.272V177.5C385.272 176.995 385.212 176.491 385.091 176H416.452C416.332 176.491 416.271 176.995 416.272 177.5ZM338.031 174L338.772 175.46C339.1 176.09 339.271 176.79 339.272 177.5V217H374.272V177.5C374.272 176.79 374.444 176.09 374.772 175.46L375.512 174H338.031ZM372.272 177.5V215H341.272V177.5C341.272 176.995 341.212 176.491 341.091 176H372.452C372.332 176.491 372.271 176.995 372.272 177.5ZM294.031 174L294.772 175.46C295.1 176.09 295.271 176.79 295.272 177.5V217H330.272V177.5C330.272 176.79 330.444 176.09 330.772 175.46L331.512 174H294.031ZM328.272 177.5V215H297.272V177.5C297.272 176.995 297.212 176.491 297.091 176H328.452C328.332 176.491 328.271 176.995 328.272 177.5ZM646.031 174L646.772 175.46C647.1 176.09 647.271 176.79 647.272 177.5V217H682.272V177.5C682.272 176.79 682.444 176.09 682.772 175.46L683.512 174H646.031ZM680.272 177.5V215H649.272V177.5C649.272 176.995 649.212 176.491 649.091 176H680.452C680.332 176.491 680.271 176.995 680.272 177.5ZM602.031 174L602.772 175.46C603.1 176.09 603.271 176.79 603.272 177.5V217H638.272V177.5C638.272 176.79 638.444 176.09 638.772 175.46L639.512 174H602.031ZM636.272 177.5V215H605.272V177.5C605.272 176.995 605.212 176.491 605.091 176H636.452C636.332 176.491 636.271 176.995 636.272 177.5ZM558.031 174L558.772 175.46C559.1 176.09 559.271 176.79 559.272 177.5V217H594.272V177.5C594.272 176.79 594.444 176.09 594.772 175.46L595.512 174H558.031ZM592.272 177.5V215H561.272V177.5C561.272 176.995 561.212 176.491 561.091 176H592.452C592.332 176.491 592.271 176.995 592.272 177.5ZM514.031 174L514.772 175.46C515.1 176.09 515.271 176.79 515.272 177.5V217H550.272V177.5C550.272 176.79 550.444 176.09 550.772 175.46L551.512 174H514.031ZM548.272 177.5V215H517.272V177.5C517.272 176.995 517.212 176.491 517.091 176H548.452C548.332 176.491 548.271 176.995 548.272 177.5ZM470.031 174L470.772 175.46C471.1 176.09 471.271 176.79 471.272 177.5V217H506.272V177.5C506.272 176.79 506.444 176.09 506.772 175.46L507.512 174H470.031ZM504.272 177.5V215H473.272V177.5C473.272 176.995 473.212 176.491 473.091 176H504.452C504.332 176.491 504.271 176.995 504.272 177.5ZM426.031 174L426.772 175.46C427.1 176.09 427.271 176.79 427.272 177.5V217H462.272V177.5C462.272 176.79 462.444 176.09 462.772 175.46L463.512 174H426.031ZM460.272 177.5V215H429.272V177.5C429.272 176.995 429.212 176.491 429.091 176H460.452C460.332 176.491 460.271 176.995 460.272 177.5ZM382.031 174L382.772 175.46C383.1 176.09 383.271 176.79 383.272 177.5V217H418.272V177.5C418.272 176.79 418.444 176.09 418.772 175.46L419.512 174H382.031ZM416.272 177.5V215H385.272V177.5C385.272 176.995 385.212 176.491 385.091 176H416.452C416.332 176.491 416.271 176.995 416.272 177.5ZM338.031 174L338.772 175.46C339.1 176.09 339.271 176.79 339.272 177.5V217H374.272V177.5C374.272 176.79 374.444 176.09 374.772 175.46L375.512 174H338.031ZM372.272 177.5V215H341.272V177.5C341.272 176.995 341.212 176.491 341.091 176H372.452C372.332 176.491 372.271 176.995 372.272 177.5ZM294.031 174L294.772 175.46C295.1 176.09 295.271 176.79 295.272 177.5V217H330.272V177.5C330.272 176.79 330.444 176.09 330.772 175.46L331.512 174H294.031ZM328.272 177.5V215H297.272V177.5C297.272 176.995 297.212 176.491 297.091 176H328.452C328.332 176.491 328.271 176.995 328.272 177.5ZM646.031 174L646.772 175.46C647.1 176.09 647.271 176.79 647.272 177.5V217H682.272V177.5C682.272 176.79 682.444 176.09 682.772 175.46L683.512 174H646.031ZM680.272 177.5V215H649.272V177.5C649.272 176.995 649.212 176.491 649.091 176H680.452C680.332 176.491 680.271 176.995 680.272 177.5ZM602.031 174L602.772 175.46C603.1 176.09 603.271 176.79 603.272 177.5V217H638.272V177.5C638.272 176.79 638.444 176.09 638.772 175.46L639.512 174H602.031ZM636.272 177.5V215H605.272V177.5C605.272 176.995 605.212 176.491 605.091 176H636.452C636.332 176.491 636.271 176.995 636.272 177.5ZM558.031 174L558.772 175.46C559.1 176.09 559.271 176.79 559.272 177.5V217H594.272V177.5C594.272 176.79 594.444 176.09 594.772 175.46L595.512 174H558.031ZM592.272 177.5V215H561.272V177.5C561.272 176.995 561.212 176.491 561.091 176H592.452C592.332 176.491 592.271 176.995 592.272 177.5ZM514.031 174L514.772 175.46C515.1 176.09 515.271 176.79 515.272 177.5V217H550.272V177.5C550.272 176.79 550.444 176.09 550.772 175.46L551.512 174H514.031ZM548.272 177.5V215H517.272V177.5C517.272 176.995 517.212 176.491 517.091 176H548.452C548.332 176.491 548.271 176.995 548.272 177.5ZM470.031 174L470.772 175.46C471.1 176.09 471.271 176.79 471.272 177.5V217H506.272V177.5C506.272 176.79 506.444 176.09 506.772 175.46L507.512 174H470.031ZM504.272 177.5V215H473.272V177.5C473.272 176.995 473.212 176.491 473.091 176H504.452C504.332 176.491 504.271 176.995 504.272 177.5ZM426.031 174L426.772 175.46C427.1 176.09 427.271 176.79 427.272 177.5V217H462.272V177.5C462.272 176.79 462.444 176.09 462.772 175.46L463.512 174H426.031ZM460.272 177.5V215H429.272V177.5C429.272 176.995 429.212 176.491 429.091 176H460.452C460.332 176.491 460.271 176.995 460.272 177.5ZM382.031 174L382.772 175.46C383.1 176.09 383.271 176.79 383.272 177.5V217H418.272V177.5C418.272 176.79 418.444 176.09 418.772 175.46L419.512 174H382.031ZM416.272 177.5V215H385.272V177.5C385.272 176.995 385.212 176.491 385.091 176H416.452C416.332 176.491 416.271 176.995 416.272 177.5ZM338.031 174L338.772 175.46C339.1 176.09 339.271 176.79 339.272 177.5V217H374.272V177.5C374.272 176.79 374.444 176.09 374.772 175.46L375.512 174H338.031ZM372.272 177.5V215H341.272V177.5C341.272 176.995 341.212 176.491 341.091 176H372.452C372.332 176.491 372.271 176.995 372.272 177.5ZM294.031 174L294.772 175.46C295.1 176.09 295.271 176.79 295.272 177.5V217H330.272V177.5C330.272 176.79 330.444 176.09 330.772 175.46L331.512 174H294.031ZM328.272 177.5V215H297.272V177.5C297.272 176.995 297.212 176.491 297.091 176H328.452C328.332 176.491 328.271 176.995 328.272 177.5ZM646.031 174L646.772 175.46C647.1 176.09 647.271 176.79 647.272 177.5V217H682.272V177.5C682.272 176.79 682.444 176.09 682.772 175.46L683.512 174H646.031ZM680.272 177.5V215H649.272V177.5C649.272 176.995 649.212 176.491 649.091 176H680.452C680.332 176.491 680.271 176.995 680.272 177.5ZM602.772 175.46C603.1 176.09 603.271 176.79 603.272 177.5V217H638.272V177.5C638.272 176.79 638.444 176.09 638.772 175.46L639.512 174H602.031L602.772 175.46ZM636.452 176C636.332 176.491 636.271 176.995 636.272 177.5V215H605.272V177.5C605.272 176.995 605.212 176.491 605.091 176H636.452ZM558.772 175.46C559.1 176.09 559.271 176.79 559.272 177.5V217H594.272V177.5C594.272 176.79 594.444 176.09 594.772 175.46L595.512 174H558.031L558.772 175.46ZM592.452 176C592.332 176.491 592.271 176.995 592.272 177.5V215H561.272V177.5C561.272 176.995 561.212 176.491 561.091 176H592.452ZM514.772 175.46C515.1 176.09 515.271 176.79 515.272 177.5V217H550.272V177.5C550.272 176.79 550.444 176.09 550.772 175.46L551.512 174H514.031L514.772 175.46ZM548.452 176C548.332 176.491 548.271 176.995 548.272 177.5V215H517.272V177.5C517.272 176.995 517.212 176.491 517.091 176H548.452ZM470.772 175.46C471.1 176.09 471.271 176.79 471.272 177.5V217H506.272V177.5C506.272 176.79 506.444 176.09 506.772 175.46L507.512 174H470.031L470.772 175.46ZM504.452 176C504.332 176.491 504.271 176.995 504.272 177.5V215H473.272V177.5C473.272 176.995 473.212 176.491 473.091 176H504.452ZM426.772 175.46C427.1 176.09 427.271 176.79 427.272 177.5V217H462.272V177.5C462.272 176.79 462.444 176.09 462.772 175.46L463.512 174H426.031L426.772 175.46ZM460.452 176C460.332 176.491 460.271 176.995 460.272 177.5V215H429.272V177.5C429.272 176.995 429.212 176.491 429.091 176H460.452ZM382.772 175.46C383.1 176.09 383.271 176.79 383.272 177.5V217H418.272V177.5C418.272 176.79 418.444 176.09 418.772 175.46L419.512 174H382.031L382.772 175.46ZM416.452 176C416.332 176.491 416.271 176.995 416.272 177.5V215H385.272V177.5C385.272 176.995 385.212 176.491 385.091 176H416.452ZM338.772 175.46C339.1 176.09 339.271 176.79 339.272 177.5V217H374.272V177.5C374.272 176.79 374.444 176.09 374.772 175.46L375.512 174H338.031L338.772 175.46ZM372.452 176C372.332 176.491 372.271 176.995 372.272 177.5V215H341.272V177.5C341.272 176.995 341.212 176.491 341.091 176H372.452ZM294.772 175.46C295.1 176.09 295.271 176.79 295.272 177.5V217H330.272V177.5C330.272 176.79 330.444 176.09 330.772 175.46L331.512 174H294.031L294.772 175.46ZM328.452 176C328.332 176.491 328.271 176.995 328.272 177.5V215H297.272V177.5C297.272 176.995 297.212 176.491 297.091 176H328.452ZM646.772 175.46C647.1 176.09 647.271 176.79 647.272 177.5V217H682.272V177.5C682.272 176.79 682.444 176.09 682.772 175.46L683.512 174H646.031L646.772 175.46ZM680.452 176C680.332 176.491 680.271 176.995 680.272 177.5V215H649.272V177.5C649.272 176.995 649.212 176.491 649.091 176H680.452ZM602.772 175.46C603.1 176.09 603.271 176.79 603.272 177.5V217H638.272V177.5C638.272 176.79 638.444 176.09 638.772 175.46L639.512 174H602.031L602.772 175.46ZM636.452 176C636.332 176.491 636.271 176.995 636.272 177.5V215H605.272V177.5C605.272 176.995 605.212 176.491 605.091 176H636.452ZM558.772 175.46C559.1 176.09 559.271 176.79 559.272 177.5V217H594.272V177.5C594.272 176.79 594.444 176.09 594.772 175.46L595.512 174H558.031L558.772 175.46ZM592.452 176C592.332 176.491 592.271 176.995 592.272 177.5V215H561.272V177.5C561.272 176.995 561.212 176.491 561.091 176H592.452ZM514.772 175.46C515.1 176.09 515.271 176.79 515.272 177.5V217H550.272V177.5C550.272 176.79 550.444 176.09 550.772 175.46L551.512 174H514.031L514.772 175.46ZM548.452 176C548.332 176.491 548.271 176.995 548.272 177.5V215H517.272V177.5C517.272 176.995 517.212 176.491 517.091 176H548.452ZM470.772 175.46C471.1 176.09 471.271 176.79 471.272 177.5V217H506.272V177.5C506.272 176.79 506.444 176.09 506.772 175.46L507.512 174H470.031L470.772 175.46ZM504.452 176C504.332 176.491 504.271 176.995 504.272 177.5V215H473.272V177.5C473.272 176.995 473.212 176.491 473.091 176H504.452ZM426.772 175.46C427.1 176.09 427.271 176.79 427.272 177.5V217H462.272V177.5C462.272 176.79 462.444 176.09 462.772 175.46L463.512 174H426.031L426.772 175.46ZM460.452 176C460.332 176.491 460.271 176.995 460.272 177.5V215H429.272V177.5C429.272 176.995 429.212 176.491 429.091 176H460.452ZM382.772 175.46C383.1 176.09 383.271 176.79 383.272 177.5V217H418.272V177.5C418.272 176.79 418.444 176.09 418.772 175.46L419.512 174H382.031L382.772 175.46ZM416.452 176C416.332 176.491 416.271 176.995 416.272 177.5V215H385.272V177.5C385.272 176.995 385.212 176.491 385.091 176H416.452ZM338.772 175.46C339.1 176.09 339.271 176.79 339.272 177.5V217H374.272V177.5C374.272 176.79 374.444 176.09 374.772 175.46L375.512 174H338.031L338.772 175.46ZM372.452 176C372.332 176.491 372.271 176.995 372.272 177.5V215H341.272V177.5C341.272 176.995 341.212 176.491 341.091 176H372.452ZM294.772 175.46C295.1 176.09 295.271 176.79 295.272 177.5V217H330.272V177.5C330.272 176.79 330.444 176.09 330.772 175.46L331.512 174H294.031L294.772 175.46ZM328.452 176C328.332 176.491 328.271 176.995 328.272 177.5V215H297.272V177.5C297.272 176.995 297.212 176.491 297.091 176H328.452ZM722.272 223H710.352C709.694 220.7 708.307 218.675 706.398 217.232C704.49 215.789 702.164 215.006 699.772 215H693.272V177.5C693.274 176.695 693.121 175.897 692.821 175.15C693.955 174.483 694.837 173.461 695.331 172.243C695.826 171.025 695.906 169.677 695.559 168.409C695.212 167.141 694.458 166.022 693.412 165.225C692.366 164.428 691.087 163.998 689.772 164H287.772C286.457 163.998 285.178 164.428 284.132 165.225C283.086 166.022 282.331 167.141 281.984 168.409C281.637 169.677 281.717 171.025 282.212 172.243C282.707 173.461 283.589 174.483 284.722 175.15C284.422 175.897 284.269 176.695 284.272 177.5V215H277.772C275.379 215.006 273.053 215.789 271.145 217.232C269.236 218.675 267.849 220.7 267.192 223H254.272C251.886 223.004 249.599 223.953 247.912 225.64C246.225 227.327 245.275 229.614 245.272 232V760C245.277 762.385 246.227 764.672 247.913 766.358C249.6 768.045 251.886 768.995 254.272 769H722.272C724.658 768.997 726.945 768.047 728.632 766.36C730.319 764.673 731.268 762.386 731.272 760V232C731.268 229.614 730.319 227.327 728.632 225.64C726.945 223.953 724.658 223.004 722.272 223ZM729.272 760C729.27 761.429 728.831 762.823 728.014 763.996C727.198 765.169 726.042 766.063 724.702 766.56C723.926 766.855 723.102 767.005 722.272 767H254.272C253.441 767.005 252.617 766.855 251.841 766.56C250.502 766.063 249.346 765.169 248.529 763.996C247.712 762.823 247.273 761.429 247.272 760V232C247.274 230.144 248.012 228.365 249.324 227.053C250.636 225.74 252.416 225.002 254.272 225H268.792L268.952 224.2C269.372 222.17 270.478 220.346 272.084 219.035C273.69 217.724 275.698 217.006 277.772 217H286.272V177.5C286.272 176.686 286.493 175.888 286.912 175.19L287.531 174.16L286.402 173.74C285.518 173.42 284.777 172.799 284.307 171.985C283.837 171.172 283.669 170.219 283.833 169.294C283.996 168.369 284.481 167.532 285.202 166.929C285.922 166.327 286.832 165.998 287.772 166H689.772C690.711 165.998 691.621 166.326 692.341 166.929C693.062 167.532 693.547 168.369 693.711 169.294C693.874 170.219 693.706 171.172 693.237 171.985C692.767 172.799 692.025 173.42 691.142 173.74L690.012 174.16L690.631 175.19C691.05 175.888 691.272 176.686 691.272 177.5V217H699.772C701.845 217.006 703.853 217.724 705.459 219.035C707.065 220.346 708.171 222.17 708.591 224.2L708.752 225H722.272C724.127 225.002 725.907 225.74 727.219 227.053C728.531 228.365 729.27 230.144 729.272 232L729.272 760ZM294.031 174L294.772 175.46C295.1 176.09 295.271 176.79 295.272 177.5V217H330.272V177.5C330.272 176.79 330.444 176.09 330.772 175.46L331.512 174H294.031ZM328.272 177.5V215H297.272V177.5C297.272 176.995 297.212 176.491 297.091 176H328.452C328.332 176.491 328.271 176.995 328.272 177.5ZM338.031 174L338.772 175.46C339.1 176.09 339.271 176.79 339.272 177.5V217H374.272V177.5C374.272 176.79 374.444 176.09 374.772 175.46L375.512 174H338.031ZM372.272 177.5V215H341.272V177.5C341.272 176.995 341.212 176.491 341.091 176H372.452C372.332 176.491 372.271 176.995 372.272 177.5ZM382.031 174L382.772 175.46C383.1 176.09 383.271 176.79 383.272 177.5V217H418.272V177.5C418.272 176.79 418.444 176.09 418.772 175.46L419.512 174H382.031ZM416.272 177.5V215H385.272V177.5C385.272 176.995 385.212 176.491 385.091 176H416.452C416.332 176.491 416.271 176.995 416.272 177.5ZM426.031 174L426.772 175.46C427.1 176.09 427.271 176.79 427.272 177.5V217H462.272V177.5C462.272 176.79 462.444 176.09 462.772 175.46L463.512 174H426.031ZM460.272 177.5V215H429.272V177.5C429.272 176.995 429.212 176.491 429.091 176H460.452C460.332 176.491 460.271 176.995 460.272 177.5ZM470.031 174L470.772 175.46C471.1 176.09 471.271 176.79 471.272 177.5V217H506.272V177.5C506.272 176.79 506.444 176.09 506.772 175.46L507.512 174H470.031ZM504.272 177.5V215H473.272V177.5C473.272 176.995 473.212 176.491 473.091 176H504.452C504.332 176.491 504.271 176.995 504.272 177.5ZM514.031 174L514.772 175.46C515.1 176.09 515.271 176.79 515.272 177.5V217H550.272V177.5C550.272 176.79 550.444 176.09 550.772 175.46L551.512 174H514.031ZM548.272 177.5V215H517.272V177.5C517.272 176.995 517.212 176.491 517.091 176H548.452C548.332 176.491 548.271 176.995 548.272 177.5ZM558.031 174L558.772 175.46C559.1 176.09 559.271 176.79 559.272 177.5V217H594.272V177.5C594.272 176.79 594.444 176.09 594.772 175.46L595.512 174H558.031ZM592.272 177.5V215H561.272V177.5C561.272 176.995 561.212 176.491 561.091 176H592.452C592.332 176.491 592.271 176.995 592.272 177.5ZM602.031 174L602.772 175.46C603.1 176.09 603.271 176.79 603.272 177.5V217H638.272V177.5C638.272 176.79 638.444 176.09 638.772 175.46L639.512 174H602.031ZM636.272 177.5V215H605.272V177.5C605.272 176.995 605.212 176.491 605.091 176H636.452C636.332 176.491 636.271 176.995 636.272 177.5ZM646.031 174L646.772 175.46C647.1 176.09 647.271 176.79 647.272 177.5V217H682.272V177.5C682.272 176.79 682.444 176.09 682.772 175.46L683.512 174H646.031ZM680.272 177.5V215H649.272V177.5C649.272 176.995 649.212 176.491 649.091 176H680.452C680.332 176.491 680.271 176.995 680.272 177.5ZM294.031 174L294.772 175.46C295.1 176.09 295.271 176.79 295.272 177.5V217H330.272V177.5C330.272 176.79 330.444 176.09 330.772 175.46L331.512 174H294.031ZM328.272 177.5V215H297.272V177.5C297.272 176.995 297.212 176.491 297.091 176H328.452C328.332 176.491 328.271 176.995 328.272 177.5ZM338.031 174L338.772 175.46C339.1 176.09 339.271 176.79 339.272 177.5V217H374.272V177.5C374.272 176.79 374.444 176.09 374.772 175.46L375.512 174H338.031ZM372.272 177.5V215H341.272V177.5C341.272 176.995 341.212 176.491 341.091 176H372.452C372.332 176.491 372.271 176.995 372.272 177.5ZM382.031 174L382.772 175.46C383.1 176.09 383.271 176.79 383.272 177.5V217H418.272V177.5C418.272 176.79 418.444 176.09 418.772 175.46L419.512 174H382.031ZM416.272 177.5V215H385.272V177.5C385.272 176.995 385.212 176.491 385.091 176H416.452C416.332 176.491 416.271 176.995 416.272 177.5ZM426.031 174L426.772 175.46C427.1 176.09 427.271 176.79 427.272 177.5V217H462.272V177.5C462.272 176.79 462.444 176.09 462.772 175.46L463.512 174H426.031ZM460.272 177.5V215H429.272V177.5C429.272 176.995 429.212 176.491 429.091 176H460.452C460.332 176.491 460.271 176.995 460.272 177.5ZM470.031 174L470.772 175.46C471.1 176.09 471.271 176.79 471.272 177.5V217H506.272V177.5C506.272 176.79 506.444 176.09 506.772 175.46L507.512 174H470.031ZM504.272 177.5V215H473.272V177.5C473.272 176.995 473.212 176.491 473.091 176H504.452C504.332 176.491 504.271 176.995 504.272 177.5ZM514.031 174L514.772 175.46C515.1 176.09 515.271 176.79 515.272 177.5V217H550.272V177.5C550.272 176.79 550.444 176.09 550.772 175.46L551.512 174H514.031ZM548.272 177.5V215H517.272V177.5C517.272 176.995 517.212 176.491 517.091 176H548.452C548.332 176.491 548.271 176.995 548.272 177.5ZM558.031 174L558.772 175.46C559.1 176.09 559.271 176.79 559.272 177.5V217H594.272V177.5C594.272 176.79 594.444 176.09 594.772 175.46L595.512 174H558.031ZM592.272 177.5V215H561.272V177.5C561.272 176.995 561.212 176.491 561.091 176H592.452C592.332 176.491 592.271 176.995 592.272 177.5ZM602.031 174L602.772 175.46C603.1 176.09 603.271 176.79 603.272 177.5V217H638.272V177.5C638.272 176.79 638.444 176.09 638.772 175.46L639.512 174H602.031ZM636.272 177.5V215H605.272V177.5C605.272 176.995 605.212 176.491 605.091 176H636.452C636.332 176.491 636.271 176.995 636.272 177.5ZM646.031 174L646.772 175.46C647.1 176.09 647.271 176.79 647.272 177.5V217H682.272V177.5C682.272 176.79 682.444 176.09 682.772 175.46L683.512 174H646.031ZM680.272 177.5V215H649.272V177.5C649.272 176.995 649.212 176.491 649.091 176H680.452C680.332 176.491 680.271 176.995 680.272 177.5ZM294.031 174L294.772 175.46C295.1 176.09 295.271 176.79 295.272 177.5V217H330.272V177.5C330.272 176.79 330.444 176.09 330.772 175.46L331.512 174H294.031ZM328.272 177.5V215H297.272V177.5C297.272 176.995 297.212 176.491 297.091 176H328.452C328.332 176.491 328.271 176.995 328.272 177.5ZM338.031 174L338.772 175.46C339.1 176.09 339.271 176.79 339.272 177.5V217H374.272V177.5C374.272 176.79 374.444 176.09 374.772 175.46L375.512 174H338.031ZM372.272 177.5V215H341.272V177.5C341.272 176.995 341.212 176.491 341.091 176H372.452C372.332 176.491 372.271 176.995 372.272 177.5ZM382.031 174L382.772 175.46C383.1 176.09 383.271 176.79 383.272 177.5V217H418.272V177.5C418.272 176.79 418.444 176.09 418.772 175.46L419.512 174H382.031ZM416.272 177.5V215H385.272V177.5C385.272 176.995 385.212 176.491 385.091 176H416.452C416.332 176.491 416.271 176.995 416.272 177.5ZM426.031 174L426.772 175.46C427.1 176.09 427.271 176.79 427.272 177.5V217H462.272V177.5C462.272 176.79 462.444 176.09 462.772 175.46L463.512 174H426.031ZM460.272 177.5V215H429.272V177.5C429.272 176.995 429.212 176.491 429.091 176H460.452C460.332 176.491 460.271 176.995 460.272 177.5ZM470.031 174L470.772 175.46C471.1 176.09 471.271 176.79 471.272 177.5V217H506.272V177.5C506.272 176.79 506.444 176.09 506.772 175.46L507.512 174H470.031ZM504.272 177.5V215H473.272V177.5C473.272 176.995 473.212 176.491 473.091 176H504.452C504.332 176.491 504.271 176.995 504.272 177.5ZM514.031 174L514.772 175.46C515.1 176.09 515.271 176.79 515.272 177.5V217H550.272V177.5C550.272 176.79 550.444 176.09 550.772 175.46L551.512 174H514.031ZM548.272 177.5V215H517.272V177.5C517.272 176.995 517.212 176.491 517.091 176H548.452C548.332 176.491 548.271 176.995 548.272 177.5ZM558.031 174L558.772 175.46C559.1 176.09 559.271 176.79 559.272 177.5V217H594.272V177.5C594.272 176.79 594.444 176.09 594.772 175.46L595.512 174H558.031ZM592.272 177.5V215H561.272V177.5C561.272 176.995 561.212 176.491 561.091 176H592.452C592.332 176.491 592.271 176.995 592.272 177.5ZM602.031 174L602.772 175.46C603.1 176.09 603.271 176.79 603.272 177.5V217H638.272V177.5C638.272 176.79 638.444 176.09 638.772 175.46L639.512 174H602.031ZM636.272 177.5V215H605.272V177.5C605.272 176.995 605.212 176.491 605.091 176H636.452C636.332 176.491 636.271 176.995 636.272 177.5ZM646.031 174L646.772 175.46C647.1 176.09 647.271 176.79 647.272 177.5V217H682.272V177.5C682.272 176.79 682.444 176.09 682.772 175.46L683.512 174H646.031ZM680.272 177.5V215H649.272V177.5C649.272 176.995 649.212 176.491 649.091 176H680.452C680.332 176.491 680.271 176.995 680.272 177.5ZM294.031 174L294.772 175.46C295.1 176.09 295.271 176.79 295.272 177.5V217H330.272V177.5C330.272 176.79 330.444 176.09 330.772 175.46L331.512 174H294.031ZM328.272 177.5V215H297.272V177.5C297.272 176.995 297.212 176.491 297.091 176H328.452C328.332 176.491 328.271 176.995 328.272 177.5ZM338.031 174L338.772 175.46C339.1 176.09 339.271 176.79 339.272 177.5V217H374.272V177.5C374.272 176.79 374.444 176.09 374.772 175.46L375.512 174H338.031ZM372.272 177.5V215H341.272V177.5C341.272 176.995 341.212 176.491 341.091 176H372.452C372.332 176.491 372.271 176.995 372.272 177.5ZM382.031 174L382.772 175.46C383.1 176.09 383.271 176.79 383.272 177.5V217H418.272V177.5C418.272 176.79 418.444 176.09 418.772 175.46L419.512 174H382.031ZM416.272 177.5V215H385.272V177.5C385.272 176.995 385.212 176.491 385.091 176H416.452C416.332 176.491 416.271 176.995 416.272 177.5ZM426.031 174L426.772 175.46C427.1 176.09 427.271 176.79 427.272 177.5V217H462.272V177.5C462.272 176.79 462.444 176.09 462.772 175.46L463.512 174H426.031ZM460.272 177.5V215H429.272V177.5C429.272 176.995 429.212 176.491 429.091 176H460.452C460.332 176.491 460.271 176.995 460.272 177.5ZM470.031 174L470.772 175.46C471.1 176.09 471.271 176.79 471.272 177.5V217H506.272V177.5C506.272 176.79 506.444 176.09 506.772 175.46L507.512 174H470.031ZM504.272 177.5V215H473.272V177.5C473.272 176.995 473.212 176.491 473.091 176H504.452C504.332 176.491 504.271 176.995 504.272 177.5ZM514.031 174L514.772 175.46C515.1 176.09 515.271 176.79 515.272 177.5V217H550.272V177.5C550.272 176.79 550.444 176.09 550.772 175.46L551.512 174H514.031ZM548.272 177.5V215H517.272V177.5C517.272 176.995 517.212 176.491 517.091 176H548.452C548.332 176.491 548.271 176.995 548.272 177.5ZM558.031 174L558.772 175.46C559.1 176.09 559.271 176.79 559.272 177.5V217H594.272V177.5C594.272 176.79 594.444 176.09 594.772 175.46L595.512 174H558.031ZM592.272 177.5V215H561.272V177.5C561.272 176.995 561.212 176.491 561.091 176H592.452C592.332 176.491 592.271 176.995 592.272 177.5ZM602.031 174L602.772 175.46C603.1 176.09 603.271 176.79 603.272 177.5V217H638.272V177.5C638.272 176.79 638.444 176.09 638.772 175.46L639.512 174H602.031ZM636.272 177.5V215H605.272V177.5C605.272 176.995 605.212 176.491 605.091 176H636.452C636.332 176.491 636.271 176.995 636.272 177.5ZM646.031 174L646.772 175.46C647.1 176.09 647.271 176.79 647.272 177.5V217H682.272V177.5C682.272 176.79 682.444 176.09 682.772 175.46L683.512 174H646.031ZM680.272 177.5V215H649.272V177.5C649.272 176.995 649.212 176.491 649.091 176H680.452C680.332 176.491 680.271 176.995 680.272 177.5Z" fill="#3F3D56"/>
<path id="Vector_6" d="M412.924 349H339.181C337.627 348.998 336.138 348.38 335.04 347.282C333.942 346.184 333.324 344.695 333.322 343.142V303.858C333.324 302.305 333.942 300.816 335.04 299.718C336.138 298.62 337.627 298.002 339.181 298H412.924C414.477 298.002 415.966 298.619 417.064 299.718C418.162 300.816 418.78 302.305 418.782 303.858V343.142C418.78 344.695 418.162 346.184 417.064 347.282C415.966 348.381 414.477 348.998 412.924 349Z" fill="#6C63FF"/>
<path id="Vector_7" d="M525.143 349H451.4C449.847 348.998 448.358 348.38 447.26 347.282C446.161 346.184 445.544 344.695 445.542 343.142V303.858C445.544 302.305 446.161 300.816 447.26 299.718C448.358 298.62 449.847 298.002 451.4 298H525.143C526.696 298.002 528.185 298.619 529.284 299.718C530.382 300.816 531 302.305 531.001 303.858V343.142C531 344.695 530.382 346.184 529.284 347.282C528.185 348.38 526.696 348.998 525.143 349Z" fill="#6C63FF"/>
<path id="Vector_8" d="M637.363 349H563.62C562.066 348.998 560.577 348.38 559.479 347.282C558.381 346.184 557.763 344.695 557.761 343.142V303.858C557.763 302.305 558.381 300.816 559.479 299.718C560.577 298.62 562.066 298.002 563.62 298H637.363C638.916 298.002 640.405 298.619 641.503 299.718C642.601 300.816 643.219 302.305 643.221 303.858V343.142C643.219 344.695 642.601 346.184 641.503 347.282C640.405 348.381 638.916 348.998 637.363 349Z" fill="#6C63FF"/>
<path id="Vector_9" d="M412.924 480H339.181C337.627 479.998 336.138 479.381 335.04 478.282C333.942 477.184 333.324 475.695 333.322 474.142V434.858C333.324 433.305 333.942 431.816 335.04 430.718C336.138 429.62 337.627 429.002 339.181 429H412.924C414.477 429.002 415.966 429.619 417.064 430.718C418.162 431.816 418.78 433.305 418.782 434.858V474.142C418.78 475.695 418.162 477.184 417.064 478.282C415.966 479.381 414.477 479.998 412.924 480Z" fill="#6C63FF"/>
<path id="Vector_10" d="M525.143 480H451.4C449.847 479.998 448.358 479.381 447.26 478.282C446.161 477.184 445.544 475.695 445.542 474.142V434.858C445.544 433.305 446.161 431.816 447.26 430.718C448.358 429.62 449.847 429.002 451.4 429H525.143C526.696 429.002 528.185 429.619 529.284 430.718C530.382 431.816 531 433.305 531.001 434.858V474.142C531 475.695 530.382 477.184 529.284 478.282C528.185 479.381 526.696 479.998 525.143 480Z" fill="#6C63FF"/>
<path id="Vector_11" d="M637.363 480H563.62C562.066 479.998 560.577 479.381 559.479 478.282C558.381 477.184 557.763 475.695 557.761 474.142V434.858C557.763 433.305 558.381 431.816 559.479 430.718C560.577 429.62 562.066 429.002 563.62 429H637.363C638.916 429.002 640.405 429.619 641.503 430.718C642.601 431.816 643.219 433.305 643.221 434.858V474.142C643.219 475.695 642.601 477.184 641.503 478.282C640.405 479.381 638.916 479.998 637.363 480Z" fill="#6C63FF"/>
<path id="Vector_12" d="M412.924 611H339.181C337.627 610.998 336.138 610.381 335.04 609.282C333.942 608.184 333.324 606.695 333.322 605.142V565.858C333.324 564.305 333.942 562.816 335.04 561.718C336.138 560.619 337.627 560.002 339.181 560H412.924C414.477 560.002 415.966 560.619 417.064 561.718C418.162 562.816 418.78 564.305 418.782 565.858V605.142C418.78 606.695 418.162 608.184 417.064 609.282C415.966 610.381 414.477 610.998 412.924 611Z" fill="#6C63FF"/>
<path id="Vector_13" d="M525.143 611H451.4C449.847 610.998 448.358 610.381 447.26 609.282C446.161 608.184 445.544 606.695 445.542 605.142V565.858C445.544 564.305 446.161 562.816 447.26 561.718C448.358 560.619 449.847 560.002 451.4 560H525.143C526.696 560.002 528.185 560.619 529.284 561.718C530.382 562.816 531 564.305 531.001 565.858V605.142C531 606.695 530.382 608.184 529.284 609.282C528.185 610.381 526.696 610.998 525.143 611Z" fill="#6C63FF"/>
<path id="Vector_14" d="M637.363 611H563.62C562.066 610.998 560.577 610.381 559.479 609.282C558.381 608.184 557.763 606.695 557.761 605.142V565.858C557.763 564.305 558.381 562.816 559.479 561.718C560.577 560.619 562.066 560.002 563.62 560H637.363C638.916 560.002 640.405 560.619 641.503 561.718C642.601 562.816 643.219 564.305 643.221 565.858V605.142C643.219 606.695 642.601 608.184 641.503 609.282C640.405 610.381 638.916 610.998 637.363 611Z" fill="#6C63FF"/>
<path id="Vector_15" d="M400.985 354.041H315.558C313.494 354.038 311.514 353.217 310.055 351.757C308.595 350.297 307.774 348.318 307.772 346.254V300.746C307.774 298.682 308.595 296.703 310.055 295.243C311.514 293.783 313.494 292.962 315.558 292.959H400.985C403.05 292.962 405.029 293.783 406.489 295.243C407.948 296.703 408.769 298.682 408.772 300.746V346.254C408.769 348.318 407.948 350.297 406.489 351.757C405.029 353.217 403.05 354.038 400.985 354.041ZM315.558 294.959C314.024 294.961 312.553 295.571 311.468 296.656C310.383 297.741 309.773 299.212 309.772 300.746V346.254C309.773 347.788 310.383 349.259 311.468 350.344C312.553 351.429 314.024 352.039 315.558 352.041H400.985C402.519 352.039 403.99 351.429 405.075 350.344C406.16 349.259 406.77 347.788 406.772 346.254V300.746C406.77 299.212 406.16 297.741 405.075 296.656C403.99 295.571 402.519 294.961 400.985 294.959H315.558Z" fill="#3F3D56"/>
<path id="Vector_16" d="M530.985 354.041H445.558C443.494 354.038 441.514 353.217 440.055 351.757C438.595 350.297 437.774 348.318 437.772 346.254V300.746C437.774 298.682 438.595 296.703 440.055 295.243C441.514 293.783 443.494 292.962 445.558 292.959H530.985C533.05 292.962 535.029 293.783 536.489 295.243C537.948 296.703 538.769 298.682 538.772 300.746V346.254C538.769 348.318 537.948 350.297 536.489 351.757C535.029 353.217 533.05 354.038 530.985 354.041ZM445.558 294.959C444.024 294.961 442.553 295.571 441.468 296.656C440.383 297.741 439.773 299.212 439.772 300.746V346.254C439.773 347.788 440.383 349.259 441.468 350.344C442.553 351.429 444.024 352.039 445.558 352.041H530.985C532.519 352.039 533.99 351.429 535.075 350.344C536.16 349.259 536.77 347.788 536.772 346.254V300.746C536.77 299.212 536.16 297.741 535.075 296.656C533.99 295.571 532.519 294.961 530.985 294.959H445.558Z" fill="#3F3D56"/>
<path id="Vector_17" d="M660.985 354.041H575.558C573.494 354.038 571.514 353.217 570.055 351.757C568.595 350.297 567.774 348.318 567.772 346.254V300.746C567.774 298.682 568.595 296.703 570.055 295.243C571.514 293.783 573.494 292.962 575.558 292.959H660.985C663.05 292.962 665.029 293.783 666.489 295.243C667.948 296.703 668.769 298.682 668.772 300.746V346.254C668.769 348.318 667.948 350.297 666.489 351.757C665.029 353.217 663.05 354.038 660.985 354.041ZM575.558 294.959C574.024 294.961 572.553 295.571 571.468 296.656C570.383 297.741 569.773 299.212 569.772 300.746V346.254C569.773 347.788 570.383 349.259 571.468 350.344C572.553 351.429 574.024 352.039 575.558 352.041H660.985C662.519 352.039 663.99 351.429 665.075 350.344C666.16 349.259 666.77 347.788 666.772 346.254V300.746C666.77 299.212 666.16 297.741 665.075 296.656C663.99 295.571 662.519 294.961 660.985 294.959H575.558Z" fill="#3F3D56"/>
<path id="Vector_18" d="M400.985 485.041H315.558C313.494 485.038 311.514 484.217 310.055 482.757C308.595 481.297 307.774 479.318 307.772 477.254V431.746C307.774 429.682 308.595 427.703 310.055 426.243C311.514 424.783 313.494 423.962 315.558 423.959H400.985C403.05 423.962 405.029 424.783 406.489 426.243C407.948 427.703 408.769 429.682 408.772 431.746V477.254C408.769 479.318 407.948 481.297 406.489 482.757C405.029 484.217 403.05 485.038 400.985 485.041ZM315.558 425.959C314.024 425.961 312.553 426.571 311.468 427.656C310.383 428.741 309.773 430.212 309.772 431.746V477.254C309.773 478.788 310.383 480.259 311.468 481.344C312.553 482.429 314.024 483.039 315.558 483.041H400.985C402.519 483.039 403.99 482.429 405.075 481.344C406.16 480.259 406.77 478.788 406.772 477.254V431.746C406.77 430.212 406.16 428.741 405.075 427.656C403.99 426.571 402.519 425.961 400.985 425.959H315.558Z" fill="#3F3D56"/>
<path id="Vector_19" d="M530.985 485.041H445.558C443.494 485.038 441.514 484.217 440.055 482.757C438.595 481.297 437.774 479.318 437.772 477.254V431.746C437.774 429.682 438.595 427.703 440.055 426.243C441.514 424.783 443.494 423.962 445.558 423.959H530.985C533.05 423.962 535.029 424.783 536.489 426.243C537.948 427.703 538.769 429.682 538.772 431.746V477.254C538.769 479.318 537.948 481.297 536.489 482.757C535.029 484.217 533.05 485.038 530.985 485.041ZM445.558 425.959C444.024 425.961 442.553 426.571 441.468 427.656C440.383 428.741 439.773 430.212 439.772 431.746V477.254C439.773 478.788 440.383 480.259 441.468 481.344C442.553 482.429 444.024 483.039 445.558 483.041H530.985C532.519 483.039 533.99 482.429 535.075 481.344C536.16 480.259 536.77 478.788 536.772 477.254V431.746C536.77 430.212 536.16 428.741 535.075 427.656C533.99 426.571 532.519 425.961 530.985 425.959H445.558Z" fill="#3F3D56"/>
<path id="Vector_20" d="M660.985 485.041H575.558C573.494 485.038 571.514 484.217 570.055 482.757C568.595 481.297 567.774 479.318 567.772 477.254V431.746C567.774 429.682 568.595 427.703 570.055 426.243C571.514 424.783 573.494 423.962 575.558 423.959H660.985C663.05 423.962 665.029 424.783 666.489 426.243C667.948 427.703 668.769 429.682 668.772 431.746V477.254C668.769 479.318 667.948 481.297 666.489 482.757C665.029 484.217 663.05 485.038 660.985 485.041ZM575.558 425.959C574.024 425.961 572.553 426.571 571.468 427.656C570.383 428.741 569.773 430.212 569.772 431.746V477.254C569.773 478.788 570.383 480.259 571.468 481.344C572.553 482.429 574.024 483.039 575.558 483.041H660.985C662.519 483.039 663.99 482.429 665.075 481.344C666.16 480.259 666.77 478.788 666.772 477.254V431.746C666.77 430.212 666.16 428.741 665.075 427.656C663.99 426.571 662.519 425.961 660.985 425.959H575.558Z" fill="#3F3D56"/>
<path id="Vector_21" d="M400.985 616.041H315.558C313.494 616.038 311.514 615.217 310.055 613.757C308.595 612.297 307.774 610.318 307.772 608.254V562.746C307.774 560.682 308.595 558.703 310.055 557.243C311.514 555.783 313.494 554.962 315.558 554.959H400.985C403.05 554.962 405.029 555.783 406.489 557.243C407.948 558.703 408.769 560.682 408.772 562.746V608.254C408.769 610.318 407.948 612.297 406.489 613.757C405.029 615.217 403.05 616.038 400.985 616.041ZM315.558 556.959C314.024 556.961 312.553 557.571 311.468 558.656C310.383 559.741 309.773 561.212 309.772 562.746V608.254C309.773 609.788 310.383 611.259 311.468 612.344C312.553 613.429 314.024 614.039 315.558 614.041H400.985C402.519 614.039 403.99 613.429 405.075 612.344C406.16 611.259 406.77 609.788 406.772 608.254V562.746C406.77 561.212 406.16 559.741 405.075 558.656C403.99 557.571 402.519 556.961 400.985 556.959H315.558Z" fill="#3F3D56"/>
<path id="Vector_22" d="M530.985 616.041H445.558C443.494 616.038 441.514 615.217 440.055 613.757C438.595 612.297 437.774 610.318 437.772 608.254V562.746C437.774 560.682 438.595 558.703 440.055 557.243C441.514 555.783 443.494 554.962 445.558 554.959H530.985C533.05 554.962 535.029 555.783 536.489 557.243C537.948 558.703 538.769 560.682 538.772 562.746V608.254C538.769 610.318 537.948 612.297 536.489 613.757C535.029 615.217 533.05 616.038 530.985 616.041ZM445.558 556.959C444.024 556.961 442.553 557.571 441.468 558.656C440.383 559.741 439.773 561.212 439.772 562.746V608.254C439.773 609.788 440.383 611.259 441.468 612.344C442.553 613.429 444.024 614.039 445.558 614.041H530.985C532.519 614.039 533.99 613.429 535.075 612.344C536.16 611.259 536.77 609.788 536.772 608.254V562.746C536.77 561.212 536.16 559.741 535.075 558.656C533.99 557.571 532.519 556.961 530.985 556.959H445.558Z" fill="#3F3D56"/>
<path id="Vector_23" d="M660.985 616.041H575.558C573.494 616.038 571.514 615.217 570.055 613.757C568.595 612.297 567.774 610.318 567.772 608.254V562.746C567.774 560.682 568.595 558.703 570.055 557.243C571.514 555.783 573.494 554.962 575.558 554.959H660.985C663.05 554.962 665.029 555.783 666.489 557.243C667.948 558.703 668.769 560.682 668.772 562.746V608.254C668.769 610.318 667.948 612.297 666.489 613.757C665.029 615.217 663.05 616.038 660.985 616.041ZM575.558 556.959C574.024 556.961 572.553 557.571 571.468 558.656C570.383 559.741 569.773 561.212 569.772 562.746V608.254C569.773 609.788 570.383 611.259 571.468 612.344C572.553 613.429 574.024 614.039 575.558 614.041H660.985C662.519 614.039 663.99 613.429 665.075 612.344C666.16 611.259 666.77 609.788 666.772 608.254V562.746C666.77 561.212 666.16 559.741 665.075 558.656C663.99 557.571 662.519 556.961 660.985 556.959H575.558Z" fill="#3F3D56"/>
<path id="Vector_24" d="M1009 770.5H1C0.734784 770.5 0.480429 770.395 0.292892 770.207C0.105356 770.02 0 769.765 0 769.5C0 769.235 0.105356 768.98 0.292892 768.793C0.480429 768.605 0.734784 768.5 1 768.5H1009C1009.27 768.5 1009.52 768.605 1009.71 768.793C1009.89 768.98 1010 769.235 1010 769.5C1010 769.765 1009.89 770.02 1009.71 770.207C1009.52 770.395 1009.27 770.5 1009 770.5Z" fill="#3F3D56"/>
<path id="Vector_25" d="M538.772 673.71C538.799 671.428 537.919 669.229 536.325 667.595C534.731 665.962 532.554 665.028 530.272 665H488.272V768.5H538.772V673.71Z" fill="#3F3D56"/>
<path id="Vector_26" d="M489.272 767.5H436.772V674C436.775 671.481 437.776 669.067 439.557 667.286C441.338 665.505 443.753 664.503 446.272 664.5H489.272V767.5ZM438.772 765.5H487.272V666.5H446.272C444.283 666.502 442.377 667.293 440.971 668.699C439.565 670.105 438.774 672.012 438.772 674V765.5Z" fill="#3F3D56"/>
<path id="Vector_27" d="M443.272 723C444.928 723 446.272 721.657 446.272 720C446.272 718.343 444.928 717 443.272 717C441.615 717 440.272 718.343 440.272 720C440.272 721.657 441.615 723 443.272 723Z" fill="#3F3D56"/>
</g>
<defs>
<clipPath id="clip0_1_2">
<rect width="1010" height="770.563" fill="white"/>
</clipPath>
</defs>
</svg>
